solid ascii
  facet normal 4.514687e-001 -8.922869e-001 0.000000e+000
    outer loop
      vertex   3.628116e+001 -1.624227e+001 8.890000e+000
      vertex   3.628116e+001 -1.624227e+001 0.000000e+000
      vertex   3.656082e+001 -1.610077e+001 2.222500e+000
    endloop
  endfacet
  facet normal 5.132233e-001 -8.582551e-001 4.573130e-016
    outer loop
      vertex   3.656082e+001 -1.610077e+001 8.890000e+000
      vertex   3.656082e+001 -1.610077e+001 2.222500e+000
      vertex   3.682982e+001 -1.593991e+001 8.890000e+000
    endloop
  endfacet
  facet normal 4.514687e-001 -8.922869e-001 4.748264e-016
    outer loop
      vertex   3.656082e+001 -1.610077e+001 8.890000e+000
      vertex   3.628116e+001 -1.624227e+001 8.890000e+000
      vertex   3.656082e+001 -1.610077e+001 2.222500e+000
    endloop
  endfacet
  facet normal 5.132233e-001 -8.582551e-001 0.000000e+000
    outer loop
      vertex   3.682982e+001 -1.593991e+001 0.000000e+000
      vertex   3.682982e+001 -1.593991e+001 2.222500e+000
      vertex   3.656082e+001 -1.610077e+001 0.000000e+000
    endloop
  endfacet
  facet normal 5.724263e-001 -8.199562e-001 0.000000e+000
    outer loop
      vertex   3.682982e+001 -1.593991e+001 0.000000e+000
      vertex   3.708681e+001 -1.576050e+001 2.222500e+000
      vertex   3.682982e+001 -1.593991e+001 2.222500e+000
    endloop
  endfacet
  facet normal 5.724263e-001 -8.199562e-001 -6.553587e-016
    outer loop
      vertex   3.682982e+001 -1.593991e+001 0.000000e+000
      vertex   3.708681e+001 -1.576050e+001 0.000000e+000
      vertex   3.708681e+001 -1.576050e+001 2.222500e+000
    endloop
  endfacet
  facet normal 6.287832e-001 -7.775806e-001 -6.214896e-016
    outer loop
      vertex   3.708681e+001 -1.576050e+001 2.222500e+000
      vertex   3.708681e+001 -1.576050e+001 0.000000e+000
      vertex   3.733052e+001 -1.556343e+001 2.222500e+000
    endloop
  endfacet
  facet normal 6.820140e-001 -7.313391e-001 -3.896871e-016
    outer loop
      vertex   3.733052e+001 -1.556343e+001 8.890000e+000
      vertex   3.733052e+001 -1.556343e+001 2.222500e+000
      vertex   3.755974e+001 -1.534967e+001 8.890000e+000
    endloop
  endfacet
  facet normal 6.287832e-001 -7.775806e-001 -4.117376e-016
    outer loop
      vertex   3.733052e+001 -1.556343e+001 8.890000e+000
      vertex   3.708681e+001 -1.576050e+001 2.222500e+000
      vertex   3.733052e+001 -1.556343e+001 2.222500e+000
    endloop
  endfacet
  facet normal 6.287832e-001 -7.775806e-001 2.071632e-016
    outer loop
      vertex   3.733052e+001 -1.556343e+001 8.890000e+000
      vertex   3.708681e+001 -1.576050e+001 8.890000e+000
      vertex   3.708681e+001 -1.576050e+001 2.222500e+000
    endloop
  endfacet
  facet normal 5.724263e-001 -8.199562e-001 2.184529e-016
    outer loop
      vertex   3.708681e+001 -1.576050e+001 2.222500e+000
      vertex   3.708681e+001 -1.576050e+001 8.890000e+000
      vertex   3.682982e+001 -1.593991e+001 2.222500e+000
    endloop
  endfacet
  facet normal 5.724263e-001 -8.199562e-001 0.000000e+000
    outer loop
      vertex   3.682982e+001 -1.593991e+001 2.222500e+000
      vertex   3.708681e+001 -1.576050e+001 8.890000e+000
      vertex   3.682982e+001 -1.593991e+001 8.890000e+000
    endloop
  endfacet
  facet normal 5.132233e-001 -8.582551e-001 0.000000e+000
    outer loop
      vertex   3.656082e+001 -1.610077e+001 2.222500e+000
      vertex   3.682982e+001 -1.593991e+001 2.222500e+000
      vertex   3.682982e+001 -1.593991e+001 8.890000e+000
    endloop
  endfacet
  facet normal 5.132233e-001 -8.582551e-001 -1.371939e-015
    outer loop
      vertex   3.656082e+001 -1.610077e+001 2.222500e+000
      vertex   3.656082e+001 -1.610077e+001 0.000000e+000
      vertex   3.682982e+001 -1.593991e+001 2.222500e+000
    endloop
  endfacet
  facet normal 4.514687e-001 -8.922869e-001 -1.424479e-015
    outer loop
      vertex   3.656082e+001 -1.610077e+001 2.222500e+000
      vertex   3.628116e+001 -1.624227e+001 0.000000e+000
      vertex   3.656082e+001 -1.610077e+001 0.000000e+000
    endloop
  endfacet
  facet normal 6.287832e-001 -7.775806e-001 1.242979e-015
    outer loop
      vertex   3.708681e+001 -1.576050e+001 0.000000e+000
      vertex   3.733052e+001 -1.556343e+001 0.000000e+000
      vertex   3.733052e+001 -1.556343e+001 2.222500e+000
    endloop
  endfacet
  facet normal 6.820140e-001 -7.313391e-001 1.169061e-015
    outer loop
      vertex   3.733052e+001 -1.556343e+001 2.222500e+000
      vertex   3.733052e+001 -1.556343e+001 0.000000e+000
      vertex   3.755974e+001 -1.534967e+001 2.222500e+000
    endloop
  endfacet
  facet normal 7.318540e-001 -6.814615e-001 -1.815551e-016
    outer loop
      vertex   3.755974e+001 -1.534967e+001 8.890000e+000
      vertex   3.755974e+001 -1.534967e+001 2.222500e+000
      vertex   3.777332e+001 -1.512029e+001 8.890000e+000
    endloop
  endfacet
  facet normal 6.820140e-001 -7.313391e-001 -1.959074e-016
    outer loop
      vertex   3.755974e+001 -1.534967e+001 8.890000e+000
      vertex   3.733052e+001 -1.556343e+001 2.222500e+000
      vertex   3.755974e+001 -1.534967e+001 2.222500e+000
    endloop
  endfacet
  facet normal 6.820140e-001 -7.313391e-001 5.845306e-016
    outer loop
      vertex   3.733052e+001 -1.556343e+001 0.000000e+000
      vertex   3.755974e+001 -1.534967e+001 0.000000e+000
      vertex   3.755974e+001 -1.534967e+001 2.222500e+000
    endloop
  endfacet
  facet normal 7.318540e-001 -6.814615e-001 5.446654e-016
    outer loop
      vertex   3.755974e+001 -1.534967e+001 2.222500e+000
      vertex   3.755974e+001 -1.534967e+001 0.000000e+000
      vertex   3.777332e+001 -1.512029e+001 2.222500e+000
    endloop
  endfacet
  facet normal 7.780553e-001 -6.281958e-001 0.000000e+000
    outer loop
      vertex   3.777332e+001 -1.512029e+001 8.890000e+000
      vertex   3.777332e+001 -1.512029e+001 2.222500e+000
      vertex   3.797021e+001 -1.487643e+001 8.890000e+000
    endloop
  endfacet
  facet normal 7.318540e-001 -6.814615e-001 0.000000e+000
    outer loop
      vertex   3.777332e+001 -1.512029e+001 8.890000e+000
      vertex   3.755974e+001 -1.534967e+001 2.222500e+000
      vertex   3.777332e+001 -1.512029e+001 2.222500e+000
    endloop
  endfacet
  facet normal 7.318540e-001 -6.814615e-001 0.000000e+000
    outer loop
      vertex   3.755974e+001 -1.534967e+001 0.000000e+000
      vertex   3.777332e+001 -1.512029e+001 0.000000e+000
      vertex   3.777332e+001 -1.512029e+001 2.222500e+000
    endloop
  endfacet
  facet normal 7.780553e-001 -6.281958e-001 0.000000e+000
    outer loop
      vertex   3.777332e+001 -1.512029e+001 2.222500e+000
      vertex   3.777332e+001 -1.512029e+001 0.000000e+000
      vertex   3.797021e+001 -1.487643e+001 2.222500e+000
    endloop
  endfacet
  facet normal 8.203883e-001 -5.718069e-001 -1.523409e-016
    outer loop
      vertex   3.797021e+001 -1.487643e+001 8.890000e+000
      vertex   3.797021e+001 -1.487643e+001 2.222500e+000
      vertex   3.814943e+001 -1.461930e+001 8.890000e+000
    endloop
  endfacet
  facet normal 7.780553e-001 -6.281958e-001 -1.660232e-016
    outer loop
      vertex   3.797021e+001 -1.487643e+001 8.890000e+000
      vertex   3.777332e+001 -1.512029e+001 2.222500e+000
      vertex   3.797021e+001 -1.487643e+001 2.222500e+000
    endloop
  endfacet
  facet normal 7.780553e-001 -6.281958e-001 0.000000e+000
    outer loop
      vertex   3.777332e+001 -1.512029e+001 0.000000e+000
      vertex   3.797021e+001 -1.487643e+001 0.000000e+000
      vertex   3.797021e+001 -1.487643e+001 2.222500e+000
    endloop
  endfacet
  facet normal 8.203883e-001 -5.718069e-001 0.000000e+000
    outer loop
      vertex   3.797021e+001 -1.487643e+001 2.222500e+000
      vertex   3.797021e+001 -1.487643e+001 0.000000e+000
      vertex   3.814943e+001 -1.461930e+001 2.222500e+000
    endloop
  endfacet
  facet normal 8.586425e-001 -5.125750e-001 0.000000e+000
    outer loop
      vertex   3.814943e+001 -1.461930e+001 8.890000e+000
      vertex   3.814943e+001 -1.461930e+001 2.222500e+000
      vertex   3.831008e+001 -1.435019e+001 8.890000e+000
    endloop
  endfacet
  facet normal 8.203883e-001 -5.718069e-001 0.000000e+000
    outer loop
      vertex   3.814943e+001 -1.461930e+001 8.890000e+000
      vertex   3.797021e+001 -1.487643e+001 2.222500e+000
      vertex   3.814943e+001 -1.461930e+001 2.222500e+000
    endloop
  endfacet
  facet normal 8.203883e-001 -5.718069e-001 0.000000e+000
    outer loop
      vertex   3.797021e+001 -1.487643e+001 0.000000e+000
      vertex   3.814943e+001 -1.461930e+001 0.000000e+000
      vertex   3.814943e+001 -1.461930e+001 2.222500e+000
    endloop
  endfacet
  facet normal 8.586425e-001 -5.125750e-001 0.000000e+000
    outer loop
      vertex   3.814943e+001 -1.461930e+001 2.222500e+000
      vertex   3.814943e+001 -1.461930e+001 0.000000e+000
      vertex   3.831008e+001 -1.435019e+001 2.222500e+000
    endloop
  endfacet
  facet normal 8.926277e-001 -4.507947e-001 0.000000e+000
    outer loop
      vertex   3.831008e+001 -1.435019e+001 8.890000e+000
      vertex   3.831008e+001 -1.435019e+001 2.222500e+000
      vertex   3.845137e+001 -1.407042e+001 8.890000e+000
    endloop
  endfacet
  facet normal 8.586425e-001 -5.125750e-001 0.000000e+000
    outer loop
      vertex   3.831008e+001 -1.435019e+001 8.890000e+000
      vertex   3.814943e+001 -1.461930e+001 2.222500e+000
      vertex   3.831008e+001 -1.435019e+001 2.222500e+000
    endloop
  endfacet
  facet normal 8.586425e-001 -5.125750e-001 0.000000e+000
    outer loop
      vertex   3.814943e+001 -1.461930e+001 0.000000e+000
      vertex   3.831008e+001 -1.435019e+001 0.000000e+000
      vertex   3.831008e+001 -1.435019e+001 2.222500e+000
    endloop
  endfacet
  facet normal 8.926277e-001 -4.507947e-001 0.000000e+000
    outer loop
      vertex   3.831008e+001 -1.435019e+001 2.222500e+000
      vertex   3.831008e+001 -1.435019e+001 0.000000e+000
      vertex   3.845137e+001 -1.407042e+001 2.222500e+000
    endloop
  endfacet
  facet normal 9.221749e-001 -3.867732e-001 0.000000e+000
    outer loop
      vertex   3.845137e+001 -1.407042e+001 8.890000e+000
      vertex   3.845137e+001 -1.407042e+001 2.222500e+000
      vertex   3.857259e+001 -1.378139e+001 8.890000e+000
    endloop
  endfacet
  facet normal 8.926277e-001 -4.507947e-001 0.000000e+000
    outer loop
      vertex   3.845137e+001 -1.407042e+001 8.890000e+000
      vertex   3.831008e+001 -1.435019e+001 2.222500e+000
      vertex   3.845137e+001 -1.407042e+001 2.222500e+000
    endloop
  endfacet
  facet normal 8.926277e-001 -4.507947e-001 0.000000e+000
    outer loop
      vertex   3.831008e+001 -1.435019e+001 0.000000e+000
      vertex   3.845137e+001 -1.407042e+001 0.000000e+000
      vertex   3.845137e+001 -1.407042e+001 2.222500e+000
    endloop
  endfacet
  facet normal 9.221749e-001 -3.867732e-001 0.000000e+000
    outer loop
      vertex   3.845137e+001 -1.407042e+001 2.222500e+000
      vertex   3.845137e+001 -1.407042e+001 0.000000e+000
      vertex   3.857259e+001 -1.378139e+001 2.222500e+000
    endloop
  endfacet
  facet normal 9.471372e-001 -3.208287e-001 0.000000e+000
    outer loop
      vertex   3.857259e+001 -1.378139e+001 8.890000e+000
      vertex   3.857259e+001 -1.378139e+001 2.222500e+000
      vertex   3.867315e+001 -1.348454e+001 8.890000e+000
    endloop
  endfacet
  facet normal 9.221749e-001 -3.867732e-001 0.000000e+000
    outer loop
      vertex   3.857259e+001 -1.378139e+001 8.890000e+000
      vertex   3.845137e+001 -1.407042e+001 2.222500e+000
      vertex   3.857259e+001 -1.378139e+001 2.222500e+000
    endloop
  endfacet
  facet normal 9.221749e-001 -3.867732e-001 0.000000e+000
    outer loop
      vertex   3.845137e+001 -1.407042e+001 0.000000e+000
      vertex   3.857259e+001 -1.378139e+001 0.000000e+000
      vertex   3.857259e+001 -1.378139e+001 2.222500e+000
    endloop
  endfacet
  facet normal 9.471372e-001 -3.208287e-001 0.000000e+000
    outer loop
      vertex   3.857259e+001 -1.378139e+001 2.222500e+000
      vertex   3.857259e+001 -1.378139e+001 0.000000e+000
      vertex   3.867315e+001 -1.348454e+001 2.222500e+000
    endloop
  endfacet
  facet normal 9.673906e-001 -2.532891e-001 1.098411e-015
    outer loop
      vertex   3.867315e+001 -1.348454e+001 8.890000e+000
      vertex   3.867315e+001 -1.348454e+001 2.222500e+000
      vertex   3.875253e+001 -1.318134e+001 8.890000e+000
    endloop
  endfacet
  facet normal 9.471372e-001 -3.208287e-001 1.095753e-015
    outer loop
      vertex   3.867315e+001 -1.348454e+001 8.890000e+000
      vertex   3.857259e+001 -1.378139e+001 2.222500e+000
      vertex   3.867315e+001 -1.348454e+001 2.222500e+000
    endloop
  endfacet
  facet normal 9.471372e-001 -3.208287e-001 -3.284464e-015
    outer loop
      vertex   3.857259e+001 -1.378139e+001 0.000000e+000
      vertex   3.867315e+001 -1.348454e+001 0.000000e+000
      vertex   3.867315e+001 -1.348454e+001 2.222500e+000
    endloop
  endfacet
  facet normal 9.673906e-001 -2.532891e-001 -3.295233e-015
    outer loop
      vertex   3.867315e+001 -1.348454e+001 2.222500e+000
      vertex   3.867315e+001 -1.348454e+001 0.000000e+000
      vertex   3.875253e+001 -1.318134e+001 2.222500e+000
    endloop
  endfacet
  facet normal 9.828344e-001 -1.844902e-001 -1.096540e-015
    outer loop
      vertex   3.875253e+001 -1.318134e+001 8.890000e+000
      vertex   3.875253e+001 -1.318134e+001 2.222500e+000
      vertex   3.881035e+001 -1.287330e+001 8.890000e+000
    endloop
  endfacet
  facet normal 9.673906e-001 -2.532891e-001 -1.097413e-015
    outer loop
      vertex   3.875253e+001 -1.318134e+001 8.890000e+000
      vertex   3.867315e+001 -1.348454e+001 2.222500e+000
      vertex   3.875253e+001 -1.318134e+001 2.222500e+000
    endloop
  endfacet
  facet normal 9.673906e-001 -2.532891e-001 3.295233e-015
    outer loop
      vertex   3.867315e+001 -1.348454e+001 0.000000e+000
      vertex   3.875253e+001 -1.318134e+001 0.000000e+000
      vertex   3.875253e+001 -1.318134e+001 2.222500e+000
    endloop
  endfacet
  facet normal 9.828344e-001 -1.844902e-001 3.289619e-015
    outer loop
      vertex   3.875253e+001 -1.318134e+001 2.222500e+000
      vertex   3.875253e+001 -1.318134e+001 0.000000e+000
      vertex   3.881035e+001 -1.287330e+001 2.222500e+000
    endloop
  endfacet
  facet normal 9.933916e-001 -1.147741e-001 1.089217e-015
    outer loop
      vertex   3.881035e+001 -1.287330e+001 8.890000e+000
      vertex   3.881035e+001 -1.287330e+001 2.222500e+000
      vertex   3.884633e+001 -1.256195e+001 8.890000e+000
    endloop
  endfacet
  facet normal 9.828344e-001 -1.844902e-001 1.097413e-015
    outer loop
      vertex   3.881035e+001 -1.287330e+001 8.890000e+000
      vertex   3.875253e+001 -1.318134e+001 2.222500e+000
      vertex   3.881035e+001 -1.287330e+001 2.222500e+000
    endloop
  endfacet
  facet normal 9.828344e-001 -1.844902e-001 -3.289619e-015
    outer loop
      vertex   3.875253e+001 -1.318134e+001 0.000000e+000
      vertex   3.881035e+001 -1.287330e+001 0.000000e+000
      vertex   3.881035e+001 -1.287330e+001 2.222500e+000
    endloop
  endfacet
  facet normal 9.933916e-001 -1.147741e-001 -3.267650e-015
    outer loop
      vertex   3.881035e+001 -1.287330e+001 2.222500e+000
      vertex   3.881035e+001 -1.287330e+001 0.000000e+000
      vertex   3.884633e+001 -1.256195e+001 2.222500e+000
    endloop
  endfacet
  facet normal 9.990100e-001 -4.448729e-002 0.000000e+000
    outer loop
      vertex   3.884633e+001 -1.256195e+001 8.890000e+000
      vertex   3.884633e+001 -1.256195e+001 2.222500e+000
      vertex   3.886027e+001 -1.224883e+001 8.890000e+000
    endloop
  endfacet
  facet normal 9.933916e-001 -1.147741e-001 0.000000e+000
    outer loop
      vertex   3.884633e+001 -1.256195e+001 8.890000e+000
      vertex   3.881035e+001 -1.287330e+001 2.222500e+000
      vertex   3.884633e+001 -1.256195e+001 2.222500e+000
    endloop
  endfacet
  facet normal 9.933916e-001 -1.147741e-001 0.000000e+000
    outer loop
      vertex   3.881035e+001 -1.287330e+001 0.000000e+000
      vertex   3.884633e+001 -1.256195e+001 0.000000e+000
      vertex   3.884633e+001 -1.256195e+001 2.222500e+000
    endloop
  endfacet
  facet normal 9.990100e-001 -4.448729e-002 0.000000e+000
    outer loop
      vertex   3.884633e+001 -1.256195e+001 2.222500e+000
      vertex   3.884633e+001 -1.256195e+001 0.000000e+000
      vertex   3.886027e+001 -1.224883e+001 2.222500e+000
    endloop
  endfacet
  facet normal 9.996614e-001 2.602066e-002 0.000000e+000
    outer loop
      vertex   3.886027e+001 -1.224883e+001 8.890000e+000
      vertex   3.886027e+001 -1.224883e+001 2.222500e+000
      vertex   3.885211e+001 -1.193552e+001 8.890000e+000
    endloop
  endfacet
  facet normal 9.990100e-001 -4.448729e-002 0.000000e+000
    outer loop
      vertex   3.886027e+001 -1.224883e+001 8.890000e+000
      vertex   3.884633e+001 -1.256195e+001 2.222500e+000
      vertex   3.886027e+001 -1.224883e+001 2.222500e+000
    endloop
  endfacet
  facet normal 9.990100e-001 -4.448729e-002 0.000000e+000
    outer loop
      vertex   3.884633e+001 -1.256195e+001 0.000000e+000
      vertex   3.886027e+001 -1.224883e+001 0.000000e+000
      vertex   3.886027e+001 -1.224883e+001 2.222500e+000
    endloop
  endfacet
  facet normal 9.996614e-001 2.602066e-002 0.000000e+000
    outer loop
      vertex   3.886027e+001 -1.224883e+001 2.222500e+000
      vertex   3.886027e+001 -1.224883e+001 0.000000e+000
      vertex   3.885211e+001 -1.193552e+001 2.222500e+000
    endloop
  endfacet
  facet normal 9.953427e-001 9.639925e-002 -1.060718e-015
    outer loop
      vertex   3.885211e+001 -1.193552e+001 8.890000e+000
      vertex   3.885211e+001 -1.193552e+001 2.222500e+000
      vertex   3.882190e+001 -1.162356e+001 8.890000e+000
    endloop
  endfacet
  facet normal 9.996614e-001 2.602066e-002 -1.065246e-015
    outer loop
      vertex   3.885211e+001 -1.193552e+001 8.890000e+000
      vertex   3.886027e+001 -1.224883e+001 2.222500e+000
      vertex   3.885211e+001 -1.193552e+001 2.222500e+000
    endloop
  endfacet
  facet normal 9.996614e-001 2.602066e-002 3.195960e-015
    outer loop
      vertex   3.886027e+001 -1.224883e+001 0.000000e+000
      vertex   3.885211e+001 -1.193552e+001 0.000000e+000
      vertex   3.885211e+001 -1.193552e+001 2.222500e+000
    endloop
  endfacet
  facet normal 9.953427e-001 9.639925e-002 3.182153e-015
    outer loop
      vertex   3.885211e+001 -1.193552e+001 2.222500e+000
      vertex   3.885211e+001 -1.193552e+001 0.000000e+000
      vertex   3.882190e+001 -1.162356e+001 2.222500e+000
    endloop
  endfacet
  facet normal 9.860754e-001 1.662986e-001 0.000000e+000
    outer loop
      vertex   3.882190e+001 -1.162356e+001 8.890000e+000
      vertex   3.882190e+001 -1.162356e+001 2.222500e+000
      vertex   3.876978e+001 -1.131450e+001 8.890000e+000
    endloop
  endfacet
  facet normal 9.953427e-001 9.639925e-002 0.000000e+000
    outer loop
      vertex   3.882190e+001 -1.162356e+001 8.890000e+000
      vertex   3.885211e+001 -1.193552e+001 2.222500e+000
      vertex   3.882190e+001 -1.162356e+001 2.222500e+000
    endloop
  endfacet
  facet normal 9.953427e-001 9.639925e-002 -0.000000e+000
    outer loop
      vertex   3.885211e+001 -1.193552e+001 0.000000e+000
      vertex   3.882190e+001 -1.162356e+001 0.000000e+000
      vertex   3.882190e+001 -1.162356e+001 2.222500e+000
    endloop
  endfacet
  facet normal 9.860754e-001 1.662986e-001 0.000000e+000
    outer loop
      vertex   3.882190e+001 -1.162356e+001 2.222500e+000
      vertex   3.882190e+001 -1.162356e+001 0.000000e+000
      vertex   3.876978e+001 -1.131450e+001 2.222500e+000
    endloop
  endfacet
  facet normal 9.719056e-001 2.353711e-001 0.000000e+000
    outer loop
      vertex   3.876978e+001 -1.131450e+001 8.890000e+000
      vertex   3.876978e+001 -1.131450e+001 2.222500e+000
      vertex   3.869601e+001 -1.100988e+001 8.890000e+000
    endloop
  endfacet
  facet normal 9.860754e-001 1.662986e-001 0.000000e+000
    outer loop
      vertex   3.876978e+001 -1.131450e+001 8.890000e+000
      vertex   3.882190e+001 -1.162356e+001 2.222500e+000
      vertex   3.876978e+001 -1.131450e+001 2.222500e+000
    endloop
  endfacet
  facet normal 9.860754e-001 1.662986e-001 -0.000000e+000
    outer loop
      vertex   3.882190e+001 -1.162356e+001 0.000000e+000
      vertex   3.876978e+001 -1.131450e+001 0.000000e+000
      vertex   3.876978e+001 -1.131450e+001 2.222500e+000
    endloop
  endfacet
  facet normal 9.719056e-001 2.353711e-001 0.000000e+000
    outer loop
      vertex   3.876978e+001 -1.131450e+001 2.222500e+000
      vertex   3.876978e+001 -1.131450e+001 0.000000e+000
      vertex   3.869601e+001 -1.100988e+001 2.222500e+000
    endloop
  endfacet
  facet normal 9.529036e-001 3.032733e-001 0.000000e+000
    outer loop
      vertex   3.869601e+001 -1.100988e+001 8.890000e+000
      vertex   3.869601e+001 -1.100988e+001 2.222500e+000
      vertex   3.860096e+001 -1.071122e+001 8.890000e+000
    endloop
  endfacet
  facet normal 9.719056e-001 2.353711e-001 0.000000e+000
    outer loop
      vertex   3.869601e+001 -1.100988e+001 8.890000e+000
      vertex   3.876978e+001 -1.131450e+001 2.222500e+000
      vertex   3.869601e+001 -1.100988e+001 2.222500e+000
    endloop
  endfacet
  facet normal 9.719056e-001 2.353711e-001 -0.000000e+000
    outer loop
      vertex   3.876978e+001 -1.131450e+001 0.000000e+000
      vertex   3.869601e+001 -1.100988e+001 0.000000e+000
      vertex   3.869601e+001 -1.100988e+001 2.222500e+000
    endloop
  endfacet
  facet normal 9.529036e-001 3.032733e-001 0.000000e+000
    outer loop
      vertex   3.869601e+001 -1.100988e+001 2.222500e+000
      vertex   3.869601e+001 -1.100988e+001 0.000000e+000
      vertex   3.860096e+001 -1.071122e+001 2.222500e+000
    endloop
  endfacet
  facet normal 9.291640e-001 3.696678e-001 -9.848698e-017
    outer loop
      vertex   3.860096e+001 -1.071122e+001 8.890000e+000
      vertex   3.860096e+001 -1.071122e+001 2.222500e+000
      vertex   3.848510e+001 -1.042000e+001 8.890000e+000
    endloop
  endfacet
  facet normal 9.529036e-001 3.032733e-001 -8.135137e-017
    outer loop
      vertex   3.860096e+001 -1.071122e+001 8.890000e+000
      vertex   3.869601e+001 -1.100988e+001 2.222500e+000
      vertex   3.860096e+001 -1.071122e+001 2.222500e+000
    endloop
  endfacet
  facet normal 9.529036e-001 3.032733e-001 2.423945e-016
    outer loop
      vertex   3.869601e+001 -1.100988e+001 0.000000e+000
      vertex   3.860096e+001 -1.071122e+001 0.000000e+000
      vertex   3.860096e+001 -1.071122e+001 2.222500e+000
    endloop
  endfacet
  facet normal 9.291640e-001 3.696678e-001 2.954610e-016
    outer loop
      vertex   3.860096e+001 -1.071122e+001 2.222500e+000
      vertex   3.860096e+001 -1.071122e+001 0.000000e+000
      vertex   3.848510e+001 -1.042000e+001 2.222500e+000
    endloop
  endfacet
  facet normal 9.008047e-001 4.342244e-001 1.156862e-016
    outer loop
      vertex   3.848510e+001 -1.042000e+001 8.890000e+000
      vertex   3.848510e+001 -1.042000e+001 2.222500e+000
      vertex   3.834900e+001 -1.013767e+001 8.890000e+000
    endloop
  endfacet
  facet normal 9.291640e-001 3.696678e-001 9.629346e-017
    outer loop
      vertex   3.848510e+001 -1.042000e+001 8.890000e+000
      vertex   3.860096e+001 -1.071122e+001 2.222500e+000
      vertex   3.848510e+001 -1.042000e+001 2.222500e+000
    endloop
  endfacet
  facet normal 9.291640e-001 3.696678e-001 -2.954610e-016
    outer loop
      vertex   3.860096e+001 -1.071122e+001 0.000000e+000
      vertex   3.848510e+001 -1.042000e+001 0.000000e+000
      vertex   3.848510e+001 -1.042000e+001 2.222500e+000
    endloop
  endfacet
  facet normal 9.008047e-001 4.342244e-001 -3.470585e-016
    outer loop
      vertex   3.848510e+001 -1.042000e+001 2.222500e+000
      vertex   3.848510e+001 -1.042000e+001 0.000000e+000
      vertex   3.834900e+001 -1.013767e+001 2.222500e+000
    endloop
  endfacet
  facet normal 8.679669e-001 4.966221e-001 0.000000e+000
    outer loop
      vertex   3.834900e+001 -1.013767e+001 8.890000e+000
      vertex   3.834900e+001 -1.013767e+001 2.222500e+000
      vertex   3.819335e+001 -9.865634e+000 8.890000e+000
    endloop
  endfacet
  facet normal 9.008047e-001 4.342244e-001 0.000000e+000
    outer loop
      vertex   3.834900e+001 -1.013767e+001 8.890000e+000
      vertex   3.848510e+001 -1.042000e+001 2.222500e+000
      vertex   3.834900e+001 -1.013767e+001 2.222500e+000
    endloop
  endfacet
  facet normal 9.008047e-001 4.342244e-001 -0.000000e+000
    outer loop
      vertex   3.848510e+001 -1.042000e+001 0.000000e+000
      vertex   3.834900e+001 -1.013767e+001 0.000000e+000
      vertex   3.834900e+001 -1.013767e+001 2.222500e+000
    endloop
  endfacet
  facet normal 8.679669e-001 4.966221e-001 0.000000e+000
    outer loop
      vertex   3.834900e+001 -1.013767e+001 2.222500e+000
      vertex   3.834900e+001 -1.013767e+001 0.000000e+000
      vertex   3.819335e+001 -9.865634e+000 2.222500e+000
    endloop
  endfacet
  facet normal 8.308137e-001 5.565507e-001 0.000000e+000
    outer loop
      vertex   3.819335e+001 -9.865634e+000 8.890000e+000
      vertex   3.819335e+001 -9.865634e+000 2.222500e+000
      vertex   3.801891e+001 -9.605239e+000 8.890000e+000
    endloop
  endfacet
  facet normal 8.679669e-001 4.966221e-001 0.000000e+000
    outer loop
      vertex   3.819335e+001 -9.865634e+000 8.890000e+000
      vertex   3.834900e+001 -1.013767e+001 2.222500e+000
      vertex   3.819335e+001 -9.865634e+000 2.222500e+000
    endloop
  endfacet
  facet normal 8.679669e-001 4.966221e-001 -0.000000e+000
    outer loop
      vertex   3.834900e+001 -1.013767e+001 0.000000e+000
      vertex   3.819335e+001 -9.865634e+000 0.000000e+000
      vertex   3.819335e+001 -9.865634e+000 2.222500e+000
    endloop
  endfacet
  facet normal 8.308137e-001 5.565507e-001 0.000000e+000
    outer loop
      vertex   3.819335e+001 -9.865634e+000 2.222500e+000
      vertex   3.819335e+001 -9.865634e+000 0.000000e+000
      vertex   3.801891e+001 -9.605239e+000 2.222500e+000
    endloop
  endfacet
  facet normal 7.895298e-001 6.137122e-001 -1.168398e-015
    outer loop
      vertex   3.801891e+001 -9.605239e+000 8.890000e+000
      vertex   3.801891e+001 -9.605239e+000 2.222500e+000
      vertex   3.782656e+001 -9.357784e+000 8.890000e+000
    endloop
  endfacet
  facet normal 8.308137e-001 5.565507e-001 -1.182085e-015
    outer loop
      vertex   3.801891e+001 -9.605239e+000 8.890000e+000
      vertex   3.819335e+001 -9.865634e+000 2.222500e+000
      vertex   3.801891e+001 -9.605239e+000 2.222500e+000
    endloop
  endfacet
  facet normal 8.308137e-001 5.565507e-001 3.545805e-015
    outer loop
      vertex   3.819335e+001 -9.865634e+000 0.000000e+000
      vertex   3.801891e+001 -9.605239e+000 0.000000e+000
      vertex   3.801891e+001 -9.605239e+000 2.222500e+000
    endloop
  endfacet
  facet normal 7.895298e-001 6.137122e-001 3.505193e-015
    outer loop
      vertex   3.801891e+001 -9.605239e+000 2.222500e+000
      vertex   3.801891e+001 -9.605239e+000 0.000000e+000
      vertex   3.782656e+001 -9.357784e+000 2.222500e+000
    endloop
  endfacet
  facet normal 7.443206e-001 6.678225e-001 0.000000e+000
    outer loop
      vertex   3.782656e+001 -9.357784e+000 8.890000e+000
      vertex   3.782656e+001 -9.357784e+000 2.222500e+000
      vertex   3.761725e+001 -9.124498e+000 8.890000e+000
    endloop
  endfacet
  facet normal 7.895298e-001 6.137122e-001 0.000000e+000
    outer loop
      vertex   3.782656e+001 -9.357784e+000 8.890000e+000
      vertex   3.801891e+001 -9.605239e+000 2.222500e+000
      vertex   3.782656e+001 -9.357784e+000 2.222500e+000
    endloop
  endfacet
  facet normal 7.895298e-001 6.137122e-001 -0.000000e+000
    outer loop
      vertex   3.801891e+001 -9.605239e+000 0.000000e+000
      vertex   3.782656e+001 -9.357784e+000 0.000000e+000
      vertex   3.782656e+001 -9.357784e+000 2.222500e+000
    endloop
  endfacet
  facet normal 7.443206e-001 6.678225e-001 0.000000e+000
    outer loop
      vertex   3.782656e+001 -9.357784e+000 2.222500e+000
      vertex   3.782656e+001 -9.357784e+000 0.000000e+000
      vertex   3.761725e+001 -9.124498e+000 2.222500e+000
    endloop
  endfacet
  facet normal 6.954108e-001 7.186125e-001 0.000000e+000
    outer loop
      vertex   3.761725e+001 -9.124498e+000 8.890000e+000
      vertex   3.761725e+001 -9.124498e+000 2.222500e+000
      vertex   3.739202e+001 -8.906542e+000 8.890000e+000
    endloop
  endfacet
  facet normal 7.443206e-001 6.678225e-001 0.000000e+000
    outer loop
      vertex   3.761725e+001 -9.124498e+000 8.890000e+000
      vertex   3.782656e+001 -9.357784e+000 2.222500e+000
      vertex   3.761725e+001 -9.124498e+000 2.222500e+000
    endloop
  endfacet
  facet normal 7.443206e-001 6.678225e-001 -0.000000e+000
    outer loop
      vertex   3.782656e+001 -9.357784e+000 0.000000e+000
      vertex   3.761725e+001 -9.124498e+000 0.000000e+000
      vertex   3.761725e+001 -9.124498e+000 2.222500e+000
    endloop
  endfacet
  facet normal 6.954108e-001 7.186125e-001 0.000000e+000
    outer loop
      vertex   3.761725e+001 -9.124498e+000 2.222500e+000
      vertex   3.761725e+001 -9.124498e+000 0.000000e+000
      vertex   3.739202e+001 -8.906542e+000 2.222500e+000
    endloop
  endfacet
  facet normal 6.430435e-001 7.658297e-001 0.000000e+000
    outer loop
      vertex   3.739202e+001 -8.906542e+000 8.890000e+000
      vertex   3.739202e+001 -8.906542e+000 2.222500e+000
      vertex   3.715200e+001 -8.704998e+000 8.890000e+000
    endloop
  endfacet
  facet normal 6.954108e-001 7.186125e-001 0.000000e+000
    outer loop
      vertex   3.739202e+001 -8.906542e+000 8.890000e+000
      vertex   3.761725e+001 -9.124498e+000 2.222500e+000
      vertex   3.739202e+001 -8.906542e+000 2.222500e+000
    endloop
  endfacet
  facet normal 6.954108e-001 7.186125e-001 5.743587e-016
    outer loop
      vertex   3.761725e+001 -9.124498e+000 0.000000e+000
      vertex   3.739202e+001 -8.906542e+000 0.000000e+000
      vertex   3.739202e+001 -8.906542e+000 2.222500e+000
    endloop
  endfacet
  facet normal 6.430435e-001 7.658297e-001 6.120975e-016
    outer loop
      vertex   3.739202e+001 -8.906542e+000 2.222500e+000
      vertex   3.739202e+001 -8.906542e+000 0.000000e+000
      vertex   3.715200e+001 -8.704998e+000 0.000000e+000
    endloop
  endfacet
  facet normal 6.430435e-001 7.658297e-001 0.000000e+000
    outer loop
      vertex   3.715200e+001 -8.704998e+000 8.890000e+000
      vertex   3.739202e+001 -8.906542e+000 2.222500e+000
      vertex   3.715200e+001 -8.704998e+000 0.000000e+000
    endloop
  endfacet
  facet normal 6.156440e-001 7.880244e-001 0.000000e+000
    outer loop
      vertex   3.715200e+001 -8.704998e+000 0.000000e+000
      vertex   0.000000e+000 2.032000e+001 0.000000e+000
      vertex   3.715200e+001 -8.704998e+000 8.890000e+000
    endloop
  endfacet
  facet normal 6.156440e-001 7.880244e-001 3.149184e-016
    outer loop
      vertex   3.715200e+001 -8.704998e+000 8.890000e+000
      vertex   0.000000e+000 2.032000e+001 0.000000e+000
      vertex   0.000000e+000 2.032000e+001 8.890000e+000
    endloop
  endfacet
  facet normal -0.000000e+000 -0.000000e+000 -1.000000e+000
    outer loop
      vertex   3.739202e+001 -8.906542e+000 0.000000e+000
      vertex   3.857259e+001 -1.378139e+001 0.000000e+000
      vertex   3.715200e+001 -8.704998e+000 0.000000e+000
    endloop
  endfacet
  facet normal 0.000000e+000 0.000000e+000 -1.000000e+000
    outer loop
      vertex   3.739202e+001 -8.906542e+000 0.000000e+000
      vertex   3.761725e+001 -9.124498e+000 0.000000e+000
      vertex   3.857259e+001 -1.378139e+001 0.000000e+000
    endloop
  endfacet
  facet normal 0.000000e+000 0.000000e+000 -1.000000e+000
    outer loop
      vertex   3.857259e+001 -1.378139e+001 0.000000e+000
      vertex   3.761725e+001 -9.124498e+000 0.000000e+000
      vertex   3.782656e+001 -9.357784e+000 0.000000e+000
    endloop
  endfacet
  facet normal -0.000000e+000 -0.000000e+000 -1.000000e+000
    outer loop
      vertex   3.801891e+001 -9.605239e+000 0.000000e+000
      vertex   3.857259e+001 -1.378139e+001 0.000000e+000
      vertex   3.782656e+001 -9.357784e+000 0.000000e+000
    endloop
  endfacet
  facet normal 0.000000e+000 0.000000e+000 -1.000000e+000
    outer loop
      vertex   3.801891e+001 -9.605239e+000 0.000000e+000
      vertex   3.819335e+001 -9.865634e+000 0.000000e+000
      vertex   3.857259e+001 -1.378139e+001 0.000000e+000
    endloop
  endfacet
  facet normal 0.000000e+000 0.000000e+000 -1.000000e+000
    outer loop
      vertex   3.857259e+001 -1.378139e+001 0.000000e+000
      vertex   3.819335e+001 -9.865634e+000 0.000000e+000
      vertex   3.834900e+001 -1.013767e+001 0.000000e+000
    endloop
  endfacet
  facet normal -0.000000e+000 -0.000000e+000 -1.000000e+000
    outer loop
      vertex   3.848510e+001 -1.042000e+001 0.000000e+000
      vertex   3.857259e+001 -1.378139e+001 0.000000e+000
      vertex   3.834900e+001 -1.013767e+001 0.000000e+000
    endloop
  endfacet
  facet normal 0.000000e+000 -0.000000e+000 -1.000000e+000
    outer loop
      vertex   3.848510e+001 -1.042000e+001 0.000000e+000
      vertex   3.860096e+001 -1.071122e+001 0.000000e+000
      vertex   3.857259e+001 -1.378139e+001 0.000000e+000
    endloop
  endfacet
  facet normal 0.000000e+000 0.000000e+000 -1.000000e+000
    outer loop
      vertex   3.857259e+001 -1.378139e+001 0.000000e+000
      vertex   3.860096e+001 -1.071122e+001 0.000000e+000
      vertex   3.867315e+001 -1.348454e+001 0.000000e+000
    endloop
  endfacet
  facet normal 0.000000e+000 0.000000e+000 -1.000000e+000
    outer loop
      vertex   3.867315e+001 -1.348454e+001 0.000000e+000
      vertex   3.860096e+001 -1.071122e+001 0.000000e+000
      vertex   3.869601e+001 -1.100988e+001 0.000000e+000
    endloop
  endfacet
  facet normal 0.000000e+000 0.000000e+000 -1.000000e+000
    outer loop
      vertex   3.875253e+001 -1.318134e+001 0.000000e+000
      vertex   3.869601e+001 -1.100988e+001 0.000000e+000
      vertex   3.876978e+001 -1.131450e+001 0.000000e+000
    endloop
  endfacet
  facet normal 0.000000e+000 0.000000e+000 -1.000000e+000
    outer loop
      vertex   3.881035e+001 -1.287330e+001 0.000000e+000
      vertex   3.876978e+001 -1.131450e+001 0.000000e+000
      vertex   3.882190e+001 -1.162356e+001 0.000000e+000
    endloop
  endfacet
  facet normal 0.000000e+000 0.000000e+000 -1.000000e+000
    outer loop
      vertex   3.884633e+001 -1.256195e+001 0.000000e+000
      vertex   3.882190e+001 -1.162356e+001 0.000000e+000
      vertex   3.885211e+001 -1.193552e+001 0.000000e+000
    endloop
  endfacet
  facet normal -0.000000e+000 0.000000e+000 -1.000000e+000
    outer loop
      vertex   3.886027e+001 -1.224883e+001 0.000000e+000
      vertex   3.884633e+001 -1.256195e+001 0.000000e+000
      vertex   3.885211e+001 -1.193552e+001 0.000000e+000
    endloop
  endfacet
  facet normal 0.000000e+000 0.000000e+000 -1.000000e+000
    outer loop
      vertex   3.867315e+001 -1.348454e+001 0.000000e+000
      vertex   3.869601e+001 -1.100988e+001 0.000000e+000
      vertex   3.875253e+001 -1.318134e+001 0.000000e+000
    endloop
  endfacet
  facet normal 0.000000e+000 0.000000e+000 -1.000000e+000
    outer loop
      vertex   3.875253e+001 -1.318134e+001 0.000000e+000
      vertex   3.876978e+001 -1.131450e+001 0.000000e+000
      vertex   3.881035e+001 -1.287330e+001 0.000000e+000
    endloop
  endfacet
  facet normal 0.000000e+000 0.000000e+000 -1.000000e+000
    outer loop
      vertex   3.881035e+001 -1.287330e+001 0.000000e+000
      vertex   3.882190e+001 -1.162356e+001 0.000000e+000
      vertex   3.884633e+001 -1.256195e+001 0.000000e+000
    endloop
  endfacet
  facet normal 0.000000e+000 -0.000000e+000 -1.000000e+000
    outer loop
      vertex   3.715200e+001 -8.704998e+000 0.000000e+000
      vertex   3.857259e+001 -1.378139e+001 0.000000e+000
      vertex   0.000000e+000 -2.286000e+001 0.000000e+000
    endloop
  endfacet
  facet normal 0.000000e+000 -0.000000e+000 -1.000000e+000
    outer loop
      vertex   0.000000e+000 0.000000e+000 0.000000e+000
      vertex   3.715200e+001 -8.704998e+000 0.000000e+000
      vertex   0.000000e+000 -2.286000e+001 0.000000e+000
    endloop
  endfacet
  facet normal 0.000000e+000 0.000000e+000 -1.000000e+000
    outer loop
      vertex   0.000000e+000 0.000000e+000 0.000000e+000
      vertex   0.000000e+000 2.032000e+001 0.000000e+000
      vertex   3.715200e+001 -8.704998e+000 0.000000e+000
    endloop
  endfacet
  facet normal 0.000000e+000 0.000000e+000 -1.000000e+000
    outer loop
      vertex   0.000000e+000 0.000000e+000 0.000000e+000
      vertex   -8.890000e+000 0.000000e+000 0.000000e+000
      vertex   0.000000e+000 2.032000e+001 0.000000e+000
    endloop
  endfacet
  facet normal -0.000000e+000 0.000000e+000 -1.000000e+000
    outer loop
      vertex   0.000000e+000 2.032000e+001 0.000000e+000
      vertex   -8.890000e+000 0.000000e+000 0.000000e+000
      vertex   -8.890000e+000 2.032000e+001 0.000000e+000
    endloop
  endfacet
  facet normal 0.000000e+000 0.000000e+000 -1.000000e+000
    outer loop
      vertex   3.857259e+001 -1.378139e+001 0.000000e+000
      vertex   3.845137e+001 -1.407042e+001 0.000000e+000
      vertex   0.000000e+000 -2.286000e+001 0.000000e+000
    endloop
  endfacet
  facet normal 0.000000e+000 -0.000000e+000 -1.000000e+000
    outer loop
      vertex   0.000000e+000 -2.286000e+001 0.000000e+000
      vertex   3.845137e+001 -1.407042e+001 0.000000e+000
      vertex   3.831008e+001 -1.435019e+001 0.000000e+000
    endloop
  endfacet
  facet normal -0.000000e+000 0.000000e+000 -1.000000e+000
    outer loop
      vertex   3.814943e+001 -1.461930e+001 0.000000e+000
      vertex   0.000000e+000 -2.286000e+001 0.000000e+000
      vertex   3.831008e+001 -1.435019e+001 0.000000e+000
    endloop
  endfacet
  facet normal 0.000000e+000 0.000000e+000 -1.000000e+000
    outer loop
      vertex   3.814943e+001 -1.461930e+001 0.000000e+000
      vertex   3.797021e+001 -1.487643e+001 0.000000e+000
      vertex   0.000000e+000 -2.286000e+001 0.000000e+000
    endloop
  endfacet
  facet normal 0.000000e+000 -0.000000e+000 -1.000000e+000
    outer loop
      vertex   0.000000e+000 -2.286000e+001 0.000000e+000
      vertex   3.797021e+001 -1.487643e+001 0.000000e+000
      vertex   3.777332e+001 -1.512029e+001 0.000000e+000
    endloop
  endfacet
  facet normal -0.000000e+000 0.000000e+000 -1.000000e+000
    outer loop
      vertex   3.755974e+001 -1.534967e+001 0.000000e+000
      vertex   0.000000e+000 -2.286000e+001 0.000000e+000
      vertex   3.777332e+001 -1.512029e+001 0.000000e+000
    endloop
  endfacet
  facet normal 0.000000e+000 0.000000e+000 -1.000000e+000
    outer loop
      vertex   3.755974e+001 -1.534967e+001 0.000000e+000
      vertex   3.733052e+001 -1.556343e+001 0.000000e+000
      vertex   0.000000e+000 -2.286000e+001 0.000000e+000
    endloop
  endfacet
  facet normal 0.000000e+000 -0.000000e+000 -1.000000e+000
    outer loop
      vertex   0.000000e+000 -2.286000e+001 0.000000e+000
      vertex   3.733052e+001 -1.556343e+001 0.000000e+000
      vertex   3.708681e+001 -1.576050e+001 0.000000e+000
    endloop
  endfacet
  facet normal -0.000000e+000 0.000000e+000 -1.000000e+000
    outer loop
      vertex   3.682982e+001 -1.593991e+001 0.000000e+000
      vertex   0.000000e+000 -2.286000e+001 0.000000e+000
      vertex   3.708681e+001 -1.576050e+001 0.000000e+000
    endloop
  endfacet
  facet normal 0.000000e+000 0.000000e+000 -1.000000e+000
    outer loop
      vertex   3.682982e+001 -1.593991e+001 0.000000e+000
      vertex   3.656082e+001 -1.610077e+001 0.000000e+000
      vertex   0.000000e+000 -2.286000e+001 0.000000e+000
    endloop
  endfacet
  facet normal 0.000000e+000 -0.000000e+000 -1.000000e+000
    outer loop
      vertex   0.000000e+000 -2.286000e+001 0.000000e+000
      vertex   3.656082e+001 -1.610077e+001 0.000000e+000
      vertex   3.628116e+001 -1.624227e+001 0.000000e+000
    endloop
  endfacet
  facet normal 0.000000e+000 0.000000e+000 -1.000000e+000
    outer loop
      vertex   0.000000e+000 -3.302000e+001 0.000000e+000
      vertex   0.000000e+000 -2.286000e+001 0.000000e+000
      vertex   3.628116e+001 -1.624227e+001 0.000000e+000
    endloop
  endfacet
  facet normal 0.000000e+000 0.000000e+000 -1.000000e+000
    outer loop
      vertex   0.000000e+000 -3.302000e+001 0.000000e+000
      vertex   -7.620000e+000 -3.302000e+001 0.000000e+000
      vertex   0.000000e+000 -2.286000e+001 0.000000e+000
    endloop
  endfacet
  facet normal -0.000000e+000 0.000000e+000 -1.000000e+000
    outer loop
      vertex   0.000000e+000 -2.286000e+001 0.000000e+000
      vertex   -7.620000e+000 -3.302000e+001 0.000000e+000
      vertex   -7.620000e+000 -2.286000e+001 0.000000e+000
    endloop
  endfacet
  facet normal 4.197300e-001 -9.076490e-001 0.000000e+000
    outer loop
      vertex   3.628116e+001 -1.624227e+001 8.890000e+000
      vertex   0.000000e+000 -3.302000e+001 8.890000e+000
      vertex   3.628116e+001 -1.624227e+001 0.000000e+000
    endloop
  endfacet
  facet normal 4.197300e-001 -9.076490e-001 0.000000e+000
    outer loop
      vertex   3.628116e+001 -1.624227e+001 0.000000e+000
      vertex   0.000000e+000 -3.302000e+001 8.890000e+000
      vertex   0.000000e+000 -3.302000e+001 0.000000e+000
    endloop
  endfacet
  facet normal -1.000000e+000 0.000000e+000 0.000000e+000
    outer loop
      vertex   0.000000e+000 0.000000e+000 0.000000e+000
      vertex   0.000000e+000 -2.286000e+001 0.000000e+000
      vertex   0.000000e+000 0.000000e+000 8.890000e+000
    endloop
  endfacet
  facet normal -1.000000e+000 -0.000000e+000 0.000000e+000
    outer loop
      vertex   0.000000e+000 0.000000e+000 8.890000e+000
      vertex   0.000000e+000 -2.286000e+001 0.000000e+000
      vertex   0.000000e+000 -2.286000e+001 8.890000e+000
    endloop
  endfacet
  facet normal 0.000000e+000 -1.000000e+000 0.000000e+000
    outer loop
      vertex   -8.890000e+000 0.000000e+000 0.000000e+000
      vertex   0.000000e+000 0.000000e+000 0.000000e+000
      vertex   -8.890000e+000 0.000000e+000 8.890000e+000
    endloop
  endfacet
  facet normal 0.000000e+000 -1.000000e+000 0.000000e+000
    outer loop
      vertex   -8.890000e+000 0.000000e+000 8.890000e+000
      vertex   0.000000e+000 0.000000e+000 0.000000e+000
      vertex   0.000000e+000 0.000000e+000 8.890000e+000
    endloop
  endfacet
  facet normal -1.000000e+000 0.000000e+000 0.000000e+000
    outer loop
      vertex   -8.890000e+000 2.032000e+001 0.000000e+000
      vertex   -8.890000e+000 0.000000e+000 0.000000e+000
      vertex   -8.890000e+000 2.032000e+001 8.890000e+000
    endloop
  endfacet
  facet normal -1.000000e+000 -0.000000e+000 0.000000e+000
    outer loop
      vertex   -8.890000e+000 2.032000e+001 8.890000e+000
      vertex   -8.890000e+000 0.000000e+000 0.000000e+000
      vertex   -8.890000e+000 0.000000e+000 8.890000e+000
    endloop
  endfacet
  facet normal 0.000000e+000 1.000000e+000 3.996303e-016
    outer loop
      vertex   0.000000e+000 2.032000e+001 0.000000e+000
      vertex   -8.890000e+000 2.032000e+001 0.000000e+000
      vertex   0.000000e+000 2.032000e+001 8.890000e+000
    endloop
  endfacet
  facet normal 0.000000e+000 1.000000e+000 3.996303e-016
    outer loop
      vertex   0.000000e+000 2.032000e+001 8.890000e+000
      vertex   -8.890000e+000 2.032000e+001 0.000000e+000
      vertex   -8.890000e+000 2.032000e+001 8.890000e+000
    endloop
  endfacet
  facet normal 0.000000e+000 -1.000000e+000 0.000000e+000
    outer loop
      vertex   -7.620000e+000 -3.302000e+001 0.000000e+000
      vertex   0.000000e+000 -3.302000e+001 0.000000e+000
      vertex   -7.620000e+000 -3.302000e+001 8.890000e+000
    endloop
  endfacet
  facet normal 0.000000e+000 -1.000000e+000 0.000000e+000
    outer loop
      vertex   -7.620000e+000 -3.302000e+001 8.890000e+000
      vertex   0.000000e+000 -3.302000e+001 0.000000e+000
      vertex   0.000000e+000 -3.302000e+001 8.890000e+000
    endloop
  endfacet
  facet normal -1.000000e+000 0.000000e+000 0.000000e+000
    outer loop
      vertex   -7.620000e+000 -2.286000e+001 0.000000e+000
      vertex   -7.620000e+000 -3.302000e+001 0.000000e+000
      vertex   -7.620000e+000 -2.286000e+001 8.890000e+000
    endloop
  endfacet
  facet normal -1.000000e+000 -0.000000e+000 0.000000e+000
    outer loop
      vertex   -7.620000e+000 -2.286000e+001 8.890000e+000
      vertex   -7.620000e+000 -3.302000e+001 0.000000e+000
      vertex   -7.620000e+000 -3.302000e+001 8.890000e+000
    endloop
  endfacet
  facet normal 0.000000e+000 1.000000e+000 -0.000000e+000
    outer loop
      vertex   0.000000e+000 -2.286000e+001 0.000000e+000
      vertex   -7.620000e+000 -2.286000e+001 0.000000e+000
      vertex   0.000000e+000 -2.286000e+001 8.890000e+000
    endloop
  endfacet
  facet normal 0.000000e+000 1.000000e+000 -0.000000e+000
    outer loop
      vertex   0.000000e+000 -2.286000e+001 8.890000e+000
      vertex   -7.620000e+000 -2.286000e+001 0.000000e+000
      vertex   -7.620000e+000 -2.286000e+001 8.890000e+000
    endloop
  endfacet
  facet normal 0.000000e+000 -0.000000e+000 1.000000e+000
    outer loop
      vertex   0.000000e+000 -3.302000e+001 8.890000e+000
      vertex   3.628116e+001 -1.624227e+001 8.890000e+000
      vertex   0.000000e+000 -2.286000e+001 8.890000e+000
    endloop
  endfacet
  facet normal -0.000000e+000 0.000000e+000 1.000000e+000
    outer loop
      vertex   -7.620000e+000 -2.286000e+001 8.890000e+000
      vertex   0.000000e+000 -3.302000e+001 8.890000e+000
      vertex   0.000000e+000 -2.286000e+001 8.890000e+000
    endloop
  endfacet
  facet normal -0.000000e+000 0.000000e+000 1.000000e+000
    outer loop
      vertex   -7.620000e+000 -2.286000e+001 8.890000e+000
      vertex   -7.620000e+000 -3.302000e+001 8.890000e+000
      vertex   0.000000e+000 -3.302000e+001 8.890000e+000
    endloop
  endfacet
  facet normal 0.000000e+000 -0.000000e+000 1.000000e+000
    outer loop
      vertex   3.628116e+001 -1.624227e+001 8.890000e+000
      vertex   3.656082e+001 -1.610077e+001 8.890000e+000
      vertex   0.000000e+000 -2.286000e+001 8.890000e+000
    endloop
  endfacet
  facet normal 0.000000e+000 0.000000e+000 1.000000e+000
    outer loop
      vertex   0.000000e+000 -2.286000e+001 8.890000e+000
      vertex   3.656082e+001 -1.610077e+001 8.890000e+000
      vertex   3.682982e+001 -1.593991e+001 8.890000e+000
    endloop
  endfacet
  facet normal -0.000000e+000 0.000000e+000 1.000000e+000
    outer loop
      vertex   3.708681e+001 -1.576050e+001 8.890000e+000
      vertex   0.000000e+000 -2.286000e+001 8.890000e+000
      vertex   3.682982e+001 -1.593991e+001 8.890000e+000
    endloop
  endfacet
  facet normal 0.000000e+000 -0.000000e+000 1.000000e+000
    outer loop
      vertex   3.708681e+001 -1.576050e+001 8.890000e+000
      vertex   3.733052e+001 -1.556343e+001 8.890000e+000
      vertex   0.000000e+000 -2.286000e+001 8.890000e+000
    endloop
  endfacet
  facet normal 0.000000e+000 0.000000e+000 1.000000e+000
    outer loop
      vertex   0.000000e+000 -2.286000e+001 8.890000e+000
      vertex   3.733052e+001 -1.556343e+001 8.890000e+000
      vertex   3.755974e+001 -1.534967e+001 8.890000e+000
    endloop
  endfacet
  facet normal -0.000000e+000 0.000000e+000 1.000000e+000
    outer loop
      vertex   3.777332e+001 -1.512029e+001 8.890000e+000
      vertex   0.000000e+000 -2.286000e+001 8.890000e+000
      vertex   3.755974e+001 -1.534967e+001 8.890000e+000
    endloop
  endfacet
  facet normal 0.000000e+000 -0.000000e+000 1.000000e+000
    outer loop
      vertex   3.777332e+001 -1.512029e+001 8.890000e+000
      vertex   3.797021e+001 -1.487643e+001 8.890000e+000
      vertex   0.000000e+000 -2.286000e+001 8.890000e+000
    endloop
  endfacet
  facet normal 0.000000e+000 0.000000e+000 1.000000e+000
    outer loop
      vertex   0.000000e+000 -2.286000e+001 8.890000e+000
      vertex   3.797021e+001 -1.487643e+001 8.890000e+000
      vertex   3.814943e+001 -1.461930e+001 8.890000e+000
    endloop
  endfacet
  facet normal -0.000000e+000 0.000000e+000 1.000000e+000
    outer loop
      vertex   3.831008e+001 -1.435019e+001 8.890000e+000
      vertex   0.000000e+000 -2.286000e+001 8.890000e+000
      vertex   3.814943e+001 -1.461930e+001 8.890000e+000
    endloop
  endfacet
  facet normal 0.000000e+000 -0.000000e+000 1.000000e+000
    outer loop
      vertex   3.831008e+001 -1.435019e+001 8.890000e+000
      vertex   3.845137e+001 -1.407042e+001 8.890000e+000
      vertex   0.000000e+000 -2.286000e+001 8.890000e+000
    endloop
  endfacet
  facet normal 0.000000e+000 0.000000e+000 1.000000e+000
    outer loop
      vertex   0.000000e+000 -2.286000e+001 8.890000e+000
      vertex   3.845137e+001 -1.407042e+001 8.890000e+000
      vertex   3.857259e+001 -1.378139e+001 8.890000e+000
    endloop
  endfacet
  facet normal -0.000000e+000 -0.000000e+000 1.000000e+000
    outer loop
      vertex   3.715200e+001 -8.704998e+000 8.890000e+000
      vertex   3.857259e+001 -1.378139e+001 8.890000e+000
      vertex   3.739202e+001 -8.906542e+000 8.890000e+000
    endloop
  endfacet
  facet normal -0.000000e+000 0.000000e+000 1.000000e+000
    outer loop
      vertex   3.715200e+001 -8.704998e+000 8.890000e+000
      vertex   0.000000e+000 -2.286000e+001 8.890000e+000
      vertex   3.857259e+001 -1.378139e+001 8.890000e+000
    endloop
  endfacet
  facet normal 0.000000e+000 0.000000e+000 1.000000e+000
    outer loop
      vertex   3.715200e+001 -8.704998e+000 8.890000e+000
      vertex   0.000000e+000 0.000000e+000 8.890000e+000
      vertex   0.000000e+000 -2.286000e+001 8.890000e+000
    endloop
  endfacet
  facet normal 0.000000e+000 0.000000e+000 1.000000e+000
    outer loop
      vertex   3.715200e+001 -8.704998e+000 8.890000e+000
      vertex   0.000000e+000 2.032000e+001 8.890000e+000
      vertex   0.000000e+000 0.000000e+000 8.890000e+000
    endloop
  endfacet
  facet normal 0.000000e+000 -0.000000e+000 1.000000e+000
    outer loop
      vertex   0.000000e+000 0.000000e+000 8.890000e+000
      vertex   0.000000e+000 2.032000e+001 8.890000e+000
      vertex   -8.890000e+000 2.032000e+001 8.890000e+000
    endloop
  endfacet
  facet normal 0.000000e+000 -0.000000e+000 1.000000e+000
    outer loop
      vertex   -8.890000e+000 0.000000e+000 8.890000e+000
      vertex   0.000000e+000 0.000000e+000 8.890000e+000
      vertex   -8.890000e+000 2.032000e+001 8.890000e+000
    endloop
  endfacet
  facet normal 0.000000e+000 0.000000e+000 1.000000e+000
    outer loop
      vertex   3.867315e+001 -1.348454e+001 8.890000e+000
      vertex   3.860096e+001 -1.071122e+001 8.890000e+000
      vertex   3.857259e+001 -1.378139e+001 8.890000e+000
    endloop
  endfacet
  facet normal 0.000000e+000 -0.000000e+000 1.000000e+000
    outer loop
      vertex   3.867315e+001 -1.348454e+001 8.890000e+000
      vertex   3.869601e+001 -1.100988e+001 8.890000e+000
      vertex   3.860096e+001 -1.071122e+001 8.890000e+000
    endloop
  endfacet
  facet normal 0.000000e+000 -0.000000e+000 1.000000e+000
    outer loop
      vertex   3.867315e+001 -1.348454e+001 8.890000e+000
      vertex   3.875253e+001 -1.318134e+001 8.890000e+000
      vertex   3.869601e+001 -1.100988e+001 8.890000e+000
    endloop
  endfacet
  facet normal -0.000000e+000 0.000000e+000 1.000000e+000
    outer loop
      vertex   3.869601e+001 -1.100988e+001 8.890000e+000
      vertex   3.875253e+001 -1.318134e+001 8.890000e+000
      vertex   3.876978e+001 -1.131450e+001 8.890000e+000
    endloop
  endfacet
  facet normal -0.000000e+000 0.000000e+000 1.000000e+000
    outer loop
      vertex   3.876978e+001 -1.131450e+001 8.890000e+000
      vertex   3.875253e+001 -1.318134e+001 8.890000e+000
      vertex   3.881035e+001 -1.287330e+001 8.890000e+000
    endloop
  endfacet
  facet normal -0.000000e+000 0.000000e+000 1.000000e+000
    outer loop
      vertex   3.882190e+001 -1.162356e+001 8.890000e+000
      vertex   3.881035e+001 -1.287330e+001 8.890000e+000
      vertex   3.884633e+001 -1.256195e+001 8.890000e+000
    endloop
  endfacet
  facet normal -0.000000e+000 0.000000e+000 1.000000e+000
    outer loop
      vertex   3.885211e+001 -1.193552e+001 8.890000e+000
      vertex   3.884633e+001 -1.256195e+001 8.890000e+000
      vertex   3.886027e+001 -1.224883e+001 8.890000e+000
    endloop
  endfacet
  facet normal 0.000000e+000 0.000000e+000 1.000000e+000
    outer loop
      vertex   3.885211e+001 -1.193552e+001 8.890000e+000
      vertex   3.882190e+001 -1.162356e+001 8.890000e+000
      vertex   3.884633e+001 -1.256195e+001 8.890000e+000
    endloop
  endfacet
  facet normal -0.000000e+000 0.000000e+000 1.000000e+000
    outer loop
      vertex   3.876978e+001 -1.131450e+001 8.890000e+000
      vertex   3.881035e+001 -1.287330e+001 8.890000e+000
      vertex   3.882190e+001 -1.162356e+001 8.890000e+000
    endloop
  endfacet
  facet normal 0.000000e+000 0.000000e+000 1.000000e+000
    outer loop
      vertex   3.860096e+001 -1.071122e+001 8.890000e+000
      vertex   3.848510e+001 -1.042000e+001 8.890000e+000
      vertex   3.857259e+001 -1.378139e+001 8.890000e+000
    endloop
  endfacet
  facet normal 0.000000e+000 0.000000e+000 1.000000e+000
    outer loop
      vertex   3.857259e+001 -1.378139e+001 8.890000e+000
      vertex   3.848510e+001 -1.042000e+001 8.890000e+000
      vertex   3.834900e+001 -1.013767e+001 8.890000e+000
    endloop
  endfacet
  facet normal -0.000000e+000 -0.000000e+000 1.000000e+000
    outer loop
      vertex   3.819335e+001 -9.865634e+000 8.890000e+000
      vertex   3.857259e+001 -1.378139e+001 8.890000e+000
      vertex   3.834900e+001 -1.013767e+001 8.890000e+000
    endloop
  endfacet
  facet normal 0.000000e+000 0.000000e+000 1.000000e+000
    outer loop
      vertex   3.819335e+001 -9.865634e+000 8.890000e+000
      vertex   3.801891e+001 -9.605239e+000 8.890000e+000
      vertex   3.857259e+001 -1.378139e+001 8.890000e+000
    endloop
  endfacet
  facet normal 0.000000e+000 0.000000e+000 1.000000e+000
    outer loop
      vertex   3.857259e+001 -1.378139e+001 8.890000e+000
      vertex   3.801891e+001 -9.605239e+000 8.890000e+000
      vertex   3.782656e+001 -9.357784e+000 8.890000e+000
    endloop
  endfacet
  facet normal -0.000000e+000 -0.000000e+000 1.000000e+000
    outer loop
      vertex   3.761725e+001 -9.124498e+000 8.890000e+000
      vertex   3.857259e+001 -1.378139e+001 8.890000e+000
      vertex   3.782656e+001 -9.357784e+000 8.890000e+000
    endloop
  endfacet
  facet normal 0.000000e+000 0.000000e+000 1.000000e+000
    outer loop
      vertex   3.761725e+001 -9.124498e+000 8.890000e+000
      vertex   3.739202e+001 -8.906542e+000 8.890000e+000
      vertex   3.857259e+001 -1.378139e+001 8.890000e+000
    endloop
  endfacet
endsolid
