solid ascii
  facet normal -7.071068e-001 7.071068e-001 0.000000e+000
    outer loop
      vertex   -8.434158e+000 1.051554e+001 0.000000e+000
      vertex   -8.434158e+000 1.051554e+001 4.445000e+001
      vertex   -7.620000e+000 1.132970e+001 0.000000e+000
    endloop
  endfacet
  facet normal -7.071068e-001 7.071068e-001 0.000000e+000
    outer loop
      vertex   -7.620000e+000 1.132970e+001 0.000000e+000
      vertex   -8.434158e+000 1.051554e+001 4.445000e+001
      vertex   -7.620000e+000 1.132970e+001 4.445000e+001
    endloop
  endfacet
  facet normal -7.071068e-001 7.071068e-001 0.000000e+000
    outer loop
      vertex   -7.620000e+000 1.132970e+001 4.445000e+001
      vertex   -8.434158e+000 1.051554e+001 4.445000e+001
      vertex   -8.434158e+000 1.051554e+001 8.890000e+001
    endloop
  endfacet
  facet normal -7.071068e-001 7.071068e-001 0.000000e+000
    outer loop
      vertex   -7.620000e+000 1.132970e+001 8.890000e+001
      vertex   -7.620000e+000 1.132970e+001 4.445000e+001
      vertex   -8.434158e+000 1.051554e+001 8.890000e+001
    endloop
  endfacet
  facet normal 7.071068e-001 7.071068e-001 0.000000e+000
    outer loop
      vertex   -4.953688e+000 8.663385e+000 0.000000e+000
      vertex   -7.620000e+000 1.132970e+001 0.000000e+000
      vertex   -4.953688e+000 8.663385e+000 4.445000e+001
    endloop
  endfacet
  facet normal 7.071068e-001 7.071068e-001 -0.000000e+000
    outer loop
      vertex   -4.953688e+000 8.663385e+000 4.445000e+001
      vertex   -7.620000e+000 1.132970e+001 0.000000e+000
      vertex   -7.620000e+000 1.132970e+001 4.445000e+001
    endloop
  endfacet
  facet normal 7.071068e-001 7.071068e-001 -0.000000e+000
    outer loop
      vertex   -4.953688e+000 8.663385e+000 8.890000e+001
      vertex   -7.620000e+000 1.132970e+001 4.445000e+001
      vertex   -7.620000e+000 1.132970e+001 8.890000e+001
    endloop
  endfacet
  facet normal 7.071068e-001 7.071068e-001 0.000000e+000
    outer loop
      vertex   -4.953688e+000 8.663385e+000 8.890000e+001
      vertex   -4.953688e+000 8.663385e+000 4.445000e+001
      vertex   -7.620000e+000 1.132970e+001 4.445000e+001
    endloop
  endfacet
  facet normal -2.346381e-001 9.720828e-001 0.000000e+000
    outer loop
      vertex   -4.953688e+000 8.663385e+000 0.000000e+000
      vertex   -4.953688e+000 8.663385e+000 4.445000e+001
      vertex   -3.258376e+000 9.072594e+000 0.000000e+000
    endloop
  endfacet
  facet normal -2.346381e-001 9.720828e-001 0.000000e+000
    outer loop
      vertex   -3.258376e+000 9.072594e+000 0.000000e+000
      vertex   -4.953688e+000 8.663385e+000 4.445000e+001
      vertex   -3.258376e+000 9.072594e+000 4.445000e+001
    endloop
  endfacet
  facet normal -2.346381e-001 9.720828e-001 0.000000e+000
    outer loop
      vertex   -3.258376e+000 9.072594e+000 4.445000e+001
      vertex   -4.953688e+000 8.663385e+000 4.445000e+001
      vertex   -4.953688e+000 8.663385e+000 8.890000e+001
    endloop
  endfacet
  facet normal -2.346381e-001 9.720828e-001 0.000000e+000
    outer loop
      vertex   -3.258376e+000 9.072594e+000 8.890000e+001
      vertex   -3.258376e+000 9.072594e+000 4.445000e+001
      vertex   -4.953688e+000 8.663385e+000 8.890000e+001
    endloop
  endfacet
  facet normal -7.439352e-001 6.682517e-001 0.000000e+000
    outer loop
      vertex   0.000000e+000 1.270000e+001 0.000000e+000
      vertex   -3.258376e+000 9.072594e+000 0.000000e+000
      vertex   0.000000e+000 1.270000e+001 4.445000e+001
    endloop
  endfacet
  facet normal -7.439352e-001 6.682517e-001 0.000000e+000
    outer loop
      vertex   0.000000e+000 1.270000e+001 4.445000e+001
      vertex   -3.258376e+000 9.072594e+000 0.000000e+000
      vertex   -3.258376e+000 9.072594e+000 4.445000e+001
    endloop
  endfacet
  facet normal -7.439352e-001 6.682517e-001 0.000000e+000
    outer loop
      vertex   0.000000e+000 1.270000e+001 8.890000e+001
      vertex   -3.258376e+000 9.072594e+000 4.445000e+001
      vertex   -3.258376e+000 9.072594e+000 8.890000e+001
    endloop
  endfacet
  facet normal -7.439352e-001 6.682517e-001 0.000000e+000
    outer loop
      vertex   0.000000e+000 1.270000e+001 8.890000e+001
      vertex   0.000000e+000 1.270000e+001 4.445000e+001
      vertex   -3.258376e+000 9.072594e+000 4.445000e+001
    endloop
  endfacet
  facet normal 1.000000e+000 0.000000e+000 -0.000000e+000
    outer loop
      vertex   0.000000e+000 0.000000e+000 0.000000e+000
      vertex   0.000000e+000 1.270000e+001 0.000000e+000
      vertex   0.000000e+000 0.000000e+000 4.445000e+001
    endloop
  endfacet
  facet normal 1.000000e+000 -0.000000e+000 0.000000e+000
    outer loop
      vertex   0.000000e+000 0.000000e+000 4.445000e+001
      vertex   0.000000e+000 1.270000e+001 0.000000e+000
      vertex   0.000000e+000 1.270000e+001 4.445000e+001
    endloop
  endfacet
  facet normal 1.000000e+000 -0.000000e+000 0.000000e+000
    outer loop
      vertex   0.000000e+000 0.000000e+000 8.890000e+001
      vertex   0.000000e+000 1.270000e+001 4.445000e+001
      vertex   0.000000e+000 1.270000e+001 8.890000e+001
    endloop
  endfacet
  facet normal 1.000000e+000 -0.000000e+000 0.000000e+000
    outer loop
      vertex   0.000000e+000 0.000000e+000 8.890000e+001
      vertex   0.000000e+000 0.000000e+000 4.445000e+001
      vertex   0.000000e+000 1.270000e+001 4.445000e+001
    endloop
  endfacet
  facet normal -7.071068e-001 -7.071068e-001 0.000000e+000
    outer loop
      vertex   -7.620000e+000 7.620000e+000 0.000000e+000
      vertex   0.000000e+000 0.000000e+000 0.000000e+000
      vertex   -7.620000e+000 7.620000e+000 4.445000e+001
    endloop
  endfacet
  facet normal -7.071068e-001 -7.071068e-001 0.000000e+000
    outer loop
      vertex   -7.620000e+000 7.620000e+000 4.445000e+001
      vertex   0.000000e+000 0.000000e+000 0.000000e+000
      vertex   0.000000e+000 0.000000e+000 4.445000e+001
    endloop
  endfacet
  facet normal -7.071068e-001 -7.071068e-001 0.000000e+000
    outer loop
      vertex   -7.620000e+000 7.620000e+000 8.890000e+001
      vertex   0.000000e+000 0.000000e+000 4.445000e+001
      vertex   0.000000e+000 0.000000e+000 8.890000e+001
    endloop
  endfacet
  facet normal -7.071068e-001 -7.071068e-001 -0.000000e+000
    outer loop
      vertex   -7.620000e+000 7.620000e+000 8.890000e+001
      vertex   -7.620000e+000 7.620000e+000 4.445000e+001
      vertex   0.000000e+000 0.000000e+000 4.445000e+001
    endloop
  endfacet
  facet normal -9.626694e-001 -2.706801e-001 0.000000e+000
    outer loop
      vertex   -8.434158e+000 1.051554e+001 0.000000e+000
      vertex   -7.620000e+000 7.620000e+000 0.000000e+000
      vertex   -8.434158e+000 1.051554e+001 4.445000e+001
    endloop
  endfacet
  facet normal -9.626694e-001 -2.706801e-001 0.000000e+000
    outer loop
      vertex   -8.434158e+000 1.051554e+001 4.445000e+001
      vertex   -7.620000e+000 7.620000e+000 0.000000e+000
      vertex   -7.620000e+000 7.620000e+000 4.445000e+001
    endloop
  endfacet
  facet normal -9.626694e-001 -2.706801e-001 0.000000e+000
    outer loop
      vertex   -8.434158e+000 1.051554e+001 8.890000e+001
      vertex   -7.620000e+000 7.620000e+000 4.445000e+001
      vertex   -7.620000e+000 7.620000e+000 8.890000e+001
    endloop
  endfacet
  facet normal -9.626694e-001 -2.706801e-001 -0.000000e+000
    outer loop
      vertex   -8.434158e+000 1.051554e+001 8.890000e+001
      vertex   -8.434158e+000 1.051554e+001 4.445000e+001
      vertex   -7.620000e+000 7.620000e+000 4.445000e+001
    endloop
  endfacet
  facet normal -0.000000e+000 0.000000e+000 1.000000e+000
    outer loop
      vertex   -8.434158e+000 1.051554e+001 8.890000e+001
      vertex   -7.620000e+000 7.620000e+000 8.890000e+001
      vertex   -7.620000e+000 1.132970e+001 8.890000e+001
    endloop
  endfacet
  facet normal -0.000000e+000 0.000000e+000 1.000000e+000
    outer loop
      vertex   -7.620000e+000 1.132970e+001 8.890000e+001
      vertex   -7.620000e+000 7.620000e+000 8.890000e+001
      vertex   -4.953688e+000 8.663385e+000 8.890000e+001
    endloop
  endfacet
  facet normal 0.000000e+000 0.000000e+000 1.000000e+000
    outer loop
      vertex   -4.953688e+000 8.663385e+000 8.890000e+001
      vertex   -7.620000e+000 7.620000e+000 8.890000e+001
      vertex   0.000000e+000 0.000000e+000 8.890000e+001
    endloop
  endfacet
  facet normal -0.000000e+000 0.000000e+000 1.000000e+000
    outer loop
      vertex   -3.258376e+000 9.072594e+000 8.890000e+001
      vertex   0.000000e+000 0.000000e+000 8.890000e+001
      vertex   0.000000e+000 1.270000e+001 8.890000e+001
    endloop
  endfacet
  facet normal 0.000000e+000 0.000000e+000 1.000000e+000
    outer loop
      vertex   -3.258376e+000 9.072594e+000 8.890000e+001
      vertex   -4.953688e+000 8.663385e+000 8.890000e+001
      vertex   0.000000e+000 0.000000e+000 8.890000e+001
    endloop
  endfacet
  facet normal 0.000000e+000 0.000000e+000 -1.000000e+000
    outer loop
      vertex   -8.434158e+000 1.051554e+001 0.000000e+000
      vertex   -7.620000e+000 1.132970e+001 0.000000e+000
      vertex   -7.620000e+000 7.620000e+000 0.000000e+000
    endloop
  endfacet
  facet normal 0.000000e+000 0.000000e+000 -1.000000e+000
    outer loop
      vertex   -7.620000e+000 7.620000e+000 0.000000e+000
      vertex   -7.620000e+000 1.132970e+001 0.000000e+000
      vertex   -4.953688e+000 8.663385e+000 0.000000e+000
    endloop
  endfacet
  facet normal 0.000000e+000 0.000000e+000 -1.000000e+000
    outer loop
      vertex   0.000000e+000 0.000000e+000 0.000000e+000
      vertex   -4.953688e+000 8.663385e+000 0.000000e+000
      vertex   -3.258376e+000 9.072594e+000 0.000000e+000
    endloop
  endfacet
  facet normal -0.000000e+000 -0.000000e+000 -1.000000e+000
    outer loop
      vertex   0.000000e+000 1.270000e+001 0.000000e+000
      vertex   0.000000e+000 0.000000e+000 0.000000e+000
      vertex   -3.258376e+000 9.072594e+000 0.000000e+000
    endloop
  endfacet
  facet normal 0.000000e+000 0.000000e+000 -1.000000e+000
    outer loop
      vertex   -7.620000e+000 7.620000e+000 0.000000e+000
      vertex   -4.953688e+000 8.663385e+000 0.000000e+000
      vertex   0.000000e+000 0.000000e+000 0.000000e+000
    endloop
  endfacet
endsolid
